<?xml version="1.0" encoding="utf-8" standalone="no"?>
<!DOCTYPE svg PUBLIC "-//W3C//DTD SVG 1.1//EN"
  "http://www.w3.org/Graphics/SVG/1.1/DTD/svg11.dtd">
<!-- Created with matplotlib (https://matplotlib.org/) -->
<svg height="552.24pt" version="1.1" viewBox="0 0 1105.92 552.24" width="1105.92pt" xmlns="http://www.w3.org/2000/svg" xmlns:xlink="http://www.w3.org/1999/xlink">
 <defs>
  <style type="text/css">
*{stroke-linecap:butt;stroke-linejoin:round;}
  </style>
 </defs>
 <g id="figure_1">
  <g id="patch_1">
   <path d="M 0 552.24 
L 1105.92 552.24 
L 1105.92 0 
L 0 0 
z
" style="fill:#ffffff;"/>
  </g>
  <g id="axes_1">
   <g id="patch_2">
    <path d="M 779.3964 278.8812 
C 779.3964 250.961195 773.896768 223.312678 763.212245 197.517957 
C 752.527722 171.723236 736.866094 148.283955 717.12367 128.54153 
C 697.381245 108.799106 673.941964 93.137478 648.147243 82.452955 
C 622.352522 71.768432 594.704005 66.2688 566.784 66.2688 
C 538.863995 66.2688 511.215478 71.768432 485.420757 82.452955 
C 459.626036 93.137478 436.186755 108.799106 416.44433 128.54153 
C 396.701906 148.283955 381.040278 171.723236 370.355755 197.517957 
C 359.671232 223.312678 354.1716 250.961195 354.1716 278.8812 
C 354.1716 306.801205 359.671232 334.449722 370.355755 360.244443 
C 381.040278 386.039164 396.701906 409.478445 416.44433 429.22087 
C 436.186755 448.963294 459.626036 464.624922 485.420757 475.309445 
C 511.215478 485.993968 538.863995 491.4936 566.784 491.4936 
C 594.704005 491.4936 622.352522 485.993968 648.147243 475.309445 
C 673.941964 464.624922 697.381245 448.963294 717.12367 429.22087 
C 736.866094 409.478445 752.527722 386.039164 763.212245 360.244443 
C 773.896768 334.449722 779.3964 306.801205 779.3964 278.8812 
M 566.784 278.8812 
C 566.784 278.8812 566.784 278.8812 566.784 278.8812 
C 566.784 278.8812 566.784 278.8812 566.784 278.8812 
C 566.784 278.8812 566.784 278.8812 566.784 278.8812 
C 566.784 278.8812 566.784 278.8812 566.784 278.8812 
C 566.784 278.8812 566.784 278.8812 566.784 278.8812 
C 566.784 278.8812 566.784 278.8812 566.784 278.8812 
C 566.784 278.8812 566.784 278.8812 566.784 278.8812 
C 566.784 278.8812 566.784 278.8812 566.784 278.8812 
C 566.784 278.8812 566.784 278.8812 566.784 278.8812 
C 566.784 278.8812 566.784 278.8812 566.784 278.8812 
C 566.784 278.8812 566.784 278.8812 566.784 278.8812 
C 566.784 278.8812 566.784 278.8812 566.784 278.8812 
C 566.784 278.8812 566.784 278.8812 566.784 278.8812 
C 566.784 278.8812 566.784 278.8812 566.784 278.8812 
C 566.784 278.8812 566.784 278.8812 566.784 278.8812 
C 566.784 278.8812 566.784 278.8812 566.784 278.8812 
M 779.3964 278.8812 
z
" style="fill:#ffffff;"/>
   </g>
   <g id="patch_3">
    <path clip-path="url(#p731fd9f2f2)" d="M 689.03613 278.8812 
L 620.987197 112.060913 
L 429.178364 178.904853 
L 416.277836 388.230329 
L 607.847028 405.260205 
z
" style="fill:#ff0000;opacity:0.2;"/>
   </g>
   <g id="matplotlib.axis_1">
    <g id="xtick_1">
     <g id="line2d_1">
      <path clip-path="url(#p731fd9f2f2)" d="M 566.784 278.8812 
L 779.3964 278.8812 
" style="fill:none;stroke:#b0b0b0;stroke-linecap:square;stroke-width:0.8;"/>
     </g>
     <g id="text_1">
      <!-- Str -->
      <defs>
       <path d="M 53.515625 70.515625 
L 53.515625 60.890625 
Q 47.90625 63.578125 42.921875 64.890625 
Q 37.9375 66.21875 33.296875 66.21875 
Q 25.25 66.21875 20.875 63.09375 
Q 16.5 59.96875 16.5 54.203125 
Q 16.5 49.359375 19.40625 46.890625 
Q 22.3125 44.4375 30.421875 42.921875 
L 36.375 41.703125 
Q 47.40625 39.59375 52.65625 34.296875 
Q 57.90625 29 57.90625 20.125 
Q 57.90625 9.515625 50.796875 4.046875 
Q 43.703125 -1.421875 29.984375 -1.421875 
Q 24.8125 -1.421875 18.96875 -0.25 
Q 13.140625 0.921875 6.890625 3.21875 
L 6.890625 13.375 
Q 12.890625 10.015625 18.65625 8.296875 
Q 24.421875 6.59375 29.984375 6.59375 
Q 38.421875 6.59375 43.015625 9.90625 
Q 47.609375 13.234375 47.609375 19.390625 
Q 47.609375 24.75 44.3125 27.78125 
Q 41.015625 30.8125 33.5 32.328125 
L 27.484375 33.5 
Q 16.453125 35.6875 11.515625 40.375 
Q 6.59375 45.0625 6.59375 53.421875 
Q 6.59375 63.09375 13.40625 68.65625 
Q 20.21875 74.21875 32.171875 74.21875 
Q 37.3125 74.21875 42.625 73.28125 
Q 47.953125 72.359375 53.515625 70.515625 
z
" id="DejaVuSans-83"/>
       <path d="M 18.3125 70.21875 
L 18.3125 54.6875 
L 36.8125 54.6875 
L 36.8125 47.703125 
L 18.3125 47.703125 
L 18.3125 18.015625 
Q 18.3125 11.328125 20.140625 9.421875 
Q 21.96875 7.515625 27.59375 7.515625 
L 36.8125 7.515625 
L 36.8125 0 
L 27.59375 0 
Q 17.1875 0 13.234375 3.875 
Q 9.28125 7.765625 9.28125 18.015625 
L 9.28125 47.703125 
L 2.6875 47.703125 
L 2.6875 54.6875 
L 9.28125 54.6875 
L 9.28125 70.21875 
z
" id="DejaVuSans-116"/>
       <path d="M 41.109375 46.296875 
Q 39.59375 47.171875 37.8125 47.578125 
Q 36.03125 48 33.890625 48 
Q 26.265625 48 22.1875 43.046875 
Q 18.109375 38.09375 18.109375 28.8125 
L 18.109375 0 
L 9.078125 0 
L 9.078125 54.6875 
L 18.109375 54.6875 
L 18.109375 46.1875 
Q 20.953125 51.171875 25.484375 53.578125 
Q 30.03125 56 36.53125 56 
Q 37.453125 56 38.578125 55.875 
Q 39.703125 55.765625 41.0625 55.515625 
z
" id="DejaVuSans-114"/>
      </defs>
      <g style="fill:#808080;" transform="translate(787.644525 281.0887)scale(0.08 -0.08)">
       <use xlink:href="#DejaVuSans-83"/>
       <use x="63.476562" xlink:href="#DejaVuSans-116"/>
       <use x="102.685547" xlink:href="#DejaVuSans-114"/>
      </g>
     </g>
    </g>
    <g id="xtick_2">
     <g id="line2d_2">
      <path clip-path="url(#p731fd9f2f2)" d="M 566.784 278.8812 
L 632.484845 76.674792 
" style="fill:none;stroke:#b0b0b0;stroke-linecap:square;stroke-width:0.8;"/>
     </g>
     <g id="text_2">
      <!-- Speed -->
      <defs>
       <path d="M 18.109375 8.203125 
L 18.109375 -20.796875 
L 9.078125 -20.796875 
L 9.078125 54.6875 
L 18.109375 54.6875 
L 18.109375 46.390625 
Q 20.953125 51.265625 25.265625 53.625 
Q 29.59375 56 35.59375 56 
Q 45.5625 56 51.78125 48.09375 
Q 58.015625 40.1875 58.015625 27.296875 
Q 58.015625 14.40625 51.78125 6.484375 
Q 45.5625 -1.421875 35.59375 -1.421875 
Q 29.59375 -1.421875 25.265625 0.953125 
Q 20.953125 3.328125 18.109375 8.203125 
z
M 48.6875 27.296875 
Q 48.6875 37.203125 44.609375 42.84375 
Q 40.53125 48.484375 33.40625 48.484375 
Q 26.265625 48.484375 22.1875 42.84375 
Q 18.109375 37.203125 18.109375 27.296875 
Q 18.109375 17.390625 22.1875 11.75 
Q 26.265625 6.109375 33.40625 6.109375 
Q 40.53125 6.109375 44.609375 11.75 
Q 48.6875 17.390625 48.6875 27.296875 
z
" id="DejaVuSans-112"/>
       <path d="M 56.203125 29.59375 
L 56.203125 25.203125 
L 14.890625 25.203125 
Q 15.484375 15.921875 20.484375 11.0625 
Q 25.484375 6.203125 34.421875 6.203125 
Q 39.59375 6.203125 44.453125 7.46875 
Q 49.3125 8.734375 54.109375 11.28125 
L 54.109375 2.78125 
Q 49.265625 0.734375 44.1875 -0.34375 
Q 39.109375 -1.421875 33.890625 -1.421875 
Q 20.796875 -1.421875 13.15625 6.1875 
Q 5.515625 13.8125 5.515625 26.8125 
Q 5.515625 40.234375 12.765625 48.109375 
Q 20.015625 56 32.328125 56 
Q 43.359375 56 49.78125 48.890625 
Q 56.203125 41.796875 56.203125 29.59375 
z
M 47.21875 32.234375 
Q 47.125 39.59375 43.09375 43.984375 
Q 39.0625 48.390625 32.421875 48.390625 
Q 24.90625 48.390625 20.390625 44.140625 
Q 15.875 39.890625 15.1875 32.171875 
z
" id="DejaVuSans-101"/>
       <path d="M 45.40625 46.390625 
L 45.40625 75.984375 
L 54.390625 75.984375 
L 54.390625 0 
L 45.40625 0 
L 45.40625 8.203125 
Q 42.578125 3.328125 38.25 0.953125 
Q 33.9375 -1.421875 27.875 -1.421875 
Q 17.96875 -1.421875 11.734375 6.484375 
Q 5.515625 14.40625 5.515625 27.296875 
Q 5.515625 40.1875 11.734375 48.09375 
Q 17.96875 56 27.875 56 
Q 33.9375 56 38.25 53.625 
Q 42.578125 51.265625 45.40625 46.390625 
z
M 14.796875 27.296875 
Q 14.796875 17.390625 18.875 11.75 
Q 22.953125 6.109375 30.078125 6.109375 
Q 37.203125 6.109375 41.296875 11.75 
Q 45.40625 17.390625 45.40625 27.296875 
Q 45.40625 37.203125 41.296875 42.84375 
Q 37.203125 48.484375 30.078125 48.484375 
Q 22.953125 48.484375 18.875 42.84375 
Q 14.796875 37.203125 14.796875 27.296875 
z
" id="DejaVuSans-100"/>
      </defs>
      <g style="fill:#808080;" transform="translate(624.270458 65.5675)scale(0.08 -0.08)">
       <use xlink:href="#DejaVuSans-83"/>
       <use x="63.476562" xlink:href="#DejaVuSans-112"/>
       <use x="126.953125" xlink:href="#DejaVuSans-101"/>
       <use x="188.476562" xlink:href="#DejaVuSans-101"/>
       <use x="250" xlink:href="#DejaVuSans-100"/>
      </g>
     </g>
    </g>
    <g id="xtick_3">
     <g id="line2d_3">
      <path clip-path="url(#p731fd9f2f2)" d="M 566.784 278.8812 
L 394.776955 153.910767 
" style="fill:none;stroke:#b0b0b0;stroke-linecap:square;stroke-width:0.8;"/>
     </g>
     <g id="text_3">
      <!-- Dribbling -->
      <defs>
       <path d="M 19.671875 64.796875 
L 19.671875 8.109375 
L 31.59375 8.109375 
Q 46.6875 8.109375 53.6875 14.9375 
Q 60.6875 21.78125 60.6875 36.53125 
Q 60.6875 51.171875 53.6875 57.984375 
Q 46.6875 64.796875 31.59375 64.796875 
z
M 9.8125 72.90625 
L 30.078125 72.90625 
Q 51.265625 72.90625 61.171875 64.09375 
Q 71.09375 55.28125 71.09375 36.53125 
Q 71.09375 17.671875 61.125 8.828125 
Q 51.171875 0 30.078125 0 
L 9.8125 0 
z
" id="DejaVuSans-68"/>
       <path d="M 9.421875 54.6875 
L 18.40625 54.6875 
L 18.40625 0 
L 9.421875 0 
z
M 9.421875 75.984375 
L 18.40625 75.984375 
L 18.40625 64.59375 
L 9.421875 64.59375 
z
" id="DejaVuSans-105"/>
       <path d="M 48.6875 27.296875 
Q 48.6875 37.203125 44.609375 42.84375 
Q 40.53125 48.484375 33.40625 48.484375 
Q 26.265625 48.484375 22.1875 42.84375 
Q 18.109375 37.203125 18.109375 27.296875 
Q 18.109375 17.390625 22.1875 11.75 
Q 26.265625 6.109375 33.40625 6.109375 
Q 40.53125 6.109375 44.609375 11.75 
Q 48.6875 17.390625 48.6875 27.296875 
z
M 18.109375 46.390625 
Q 20.953125 51.265625 25.265625 53.625 
Q 29.59375 56 35.59375 56 
Q 45.5625 56 51.78125 48.09375 
Q 58.015625 40.1875 58.015625 27.296875 
Q 58.015625 14.40625 51.78125 6.484375 
Q 45.5625 -1.421875 35.59375 -1.421875 
Q 29.59375 -1.421875 25.265625 0.953125 
Q 20.953125 3.328125 18.109375 8.203125 
L 18.109375 0 
L 9.078125 0 
L 9.078125 75.984375 
L 18.109375 75.984375 
z
" id="DejaVuSans-98"/>
       <path d="M 9.421875 75.984375 
L 18.40625 75.984375 
L 18.40625 0 
L 9.421875 0 
z
" id="DejaVuSans-108"/>
       <path d="M 54.890625 33.015625 
L 54.890625 0 
L 45.90625 0 
L 45.90625 32.71875 
Q 45.90625 40.484375 42.875 44.328125 
Q 39.84375 48.1875 33.796875 48.1875 
Q 26.515625 48.1875 22.3125 43.546875 
Q 18.109375 38.921875 18.109375 30.90625 
L 18.109375 0 
L 9.078125 0 
L 9.078125 54.6875 
L 18.109375 54.6875 
L 18.109375 46.1875 
Q 21.34375 51.125 25.703125 53.5625 
Q 30.078125 56 35.796875 56 
Q 45.21875 56 50.046875 50.171875 
Q 54.890625 44.34375 54.890625 33.015625 
z
" id="DejaVuSans-110"/>
       <path d="M 45.40625 27.984375 
Q 45.40625 37.75 41.375 43.109375 
Q 37.359375 48.484375 30.078125 48.484375 
Q 22.859375 48.484375 18.828125 43.109375 
Q 14.796875 37.75 14.796875 27.984375 
Q 14.796875 18.265625 18.828125 12.890625 
Q 22.859375 7.515625 30.078125 7.515625 
Q 37.359375 7.515625 41.375 12.890625 
Q 45.40625 18.265625 45.40625 27.984375 
z
M 54.390625 6.78125 
Q 54.390625 -7.171875 48.1875 -13.984375 
Q 42 -20.796875 29.203125 -20.796875 
Q 24.46875 -20.796875 20.265625 -20.09375 
Q 16.0625 -19.390625 12.109375 -17.921875 
L 12.109375 -9.1875 
Q 16.0625 -11.328125 19.921875 -12.34375 
Q 23.78125 -13.375 27.78125 -13.375 
Q 36.625 -13.375 41.015625 -8.765625 
Q 45.40625 -4.15625 45.40625 5.171875 
L 45.40625 9.625 
Q 42.625 4.78125 38.28125 2.390625 
Q 33.9375 0 27.875 0 
Q 17.828125 0 11.671875 7.65625 
Q 5.515625 15.328125 5.515625 27.984375 
Q 5.515625 40.671875 11.671875 48.328125 
Q 17.828125 56 27.875 56 
Q 33.9375 56 38.28125 53.609375 
Q 42.625 51.21875 45.40625 46.390625 
L 45.40625 54.6875 
L 54.390625 54.6875 
z
" id="DejaVuSans-103"/>
      </defs>
      <g style="fill:#808080;" transform="translate(365.239467 147.889273)scale(0.08 -0.08)">
       <use xlink:href="#DejaVuSans-68"/>
       <use x="77.001953" xlink:href="#DejaVuSans-114"/>
       <use x="118.115234" xlink:href="#DejaVuSans-105"/>
       <use x="145.898438" xlink:href="#DejaVuSans-98"/>
       <use x="209.375" xlink:href="#DejaVuSans-98"/>
       <use x="272.851562" xlink:href="#DejaVuSans-108"/>
       <use x="300.634766" xlink:href="#DejaVuSans-105"/>
       <use x="328.417969" xlink:href="#DejaVuSans-110"/>
       <use x="391.796875" xlink:href="#DejaVuSans-103"/>
      </g>
     </g>
    </g>
    <g id="xtick_4">
     <g id="line2d_4">
      <path clip-path="url(#p731fd9f2f2)" d="M 566.784 278.8812 
L 394.776955 403.851633 
" style="fill:none;stroke:#b0b0b0;stroke-linecap:square;stroke-width:0.8;"/>
     </g>
     <g id="text_4">
      <!-- Pass -->
      <defs>
       <path d="M 19.671875 64.796875 
L 19.671875 37.40625 
L 32.078125 37.40625 
Q 38.96875 37.40625 42.71875 40.96875 
Q 46.484375 44.53125 46.484375 51.125 
Q 46.484375 57.671875 42.71875 61.234375 
Q 38.96875 64.796875 32.078125 64.796875 
z
M 9.8125 72.90625 
L 32.078125 72.90625 
Q 44.34375 72.90625 50.609375 67.359375 
Q 56.890625 61.8125 56.890625 51.125 
Q 56.890625 40.328125 50.609375 34.8125 
Q 44.34375 29.296875 32.078125 29.296875 
L 19.671875 29.296875 
L 19.671875 0 
L 9.8125 0 
z
" id="DejaVuSans-80"/>
       <path d="M 34.28125 27.484375 
Q 23.390625 27.484375 19.1875 25 
Q 14.984375 22.515625 14.984375 16.5 
Q 14.984375 11.71875 18.140625 8.90625 
Q 21.296875 6.109375 26.703125 6.109375 
Q 34.1875 6.109375 38.703125 11.40625 
Q 43.21875 16.703125 43.21875 25.484375 
L 43.21875 27.484375 
z
M 52.203125 31.203125 
L 52.203125 0 
L 43.21875 0 
L 43.21875 8.296875 
Q 40.140625 3.328125 35.546875 0.953125 
Q 30.953125 -1.421875 24.3125 -1.421875 
Q 15.921875 -1.421875 10.953125 3.296875 
Q 6 8.015625 6 15.921875 
Q 6 25.140625 12.171875 29.828125 
Q 18.359375 34.515625 30.609375 34.515625 
L 43.21875 34.515625 
L 43.21875 35.40625 
Q 43.21875 41.609375 39.140625 45 
Q 35.0625 48.390625 27.6875 48.390625 
Q 23 48.390625 18.546875 47.265625 
Q 14.109375 46.140625 10.015625 43.890625 
L 10.015625 52.203125 
Q 14.9375 54.109375 19.578125 55.046875 
Q 24.21875 56 28.609375 56 
Q 40.484375 56 46.34375 49.84375 
Q 52.203125 43.703125 52.203125 31.203125 
z
" id="DejaVuSans-97"/>
       <path d="M 44.28125 53.078125 
L 44.28125 44.578125 
Q 40.484375 46.53125 36.375 47.5 
Q 32.28125 48.484375 27.875 48.484375 
Q 21.1875 48.484375 17.84375 46.4375 
Q 14.5 44.390625 14.5 40.28125 
Q 14.5 37.15625 16.890625 35.375 
Q 19.28125 33.59375 26.515625 31.984375 
L 29.59375 31.296875 
Q 39.15625 29.25 43.1875 25.515625 
Q 47.21875 21.78125 47.21875 15.09375 
Q 47.21875 7.46875 41.1875 3.015625 
Q 35.15625 -1.421875 24.609375 -1.421875 
Q 20.21875 -1.421875 15.453125 -0.5625 
Q 10.6875 0.296875 5.421875 2 
L 5.421875 11.28125 
Q 10.40625 8.6875 15.234375 7.390625 
Q 20.0625 6.109375 24.8125 6.109375 
Q 31.15625 6.109375 34.5625 8.28125 
Q 37.984375 10.453125 37.984375 14.40625 
Q 37.984375 18.0625 35.515625 20.015625 
Q 33.0625 21.96875 24.703125 23.78125 
L 21.578125 24.515625 
Q 13.234375 26.265625 9.515625 29.90625 
Q 5.8125 33.546875 5.8125 39.890625 
Q 5.8125 47.609375 11.28125 51.796875 
Q 16.75 56 26.8125 56 
Q 31.78125 56 36.171875 55.265625 
Q 40.578125 54.546875 44.28125 53.078125 
z
" id="DejaVuSans-115"/>
      </defs>
      <g style="fill:#808080;" transform="translate(374.600092 414.288127)scale(0.08 -0.08)">
       <use xlink:href="#DejaVuSans-80"/>
       <use x="55.802734" xlink:href="#DejaVuSans-97"/>
       <use x="117.082031" xlink:href="#DejaVuSans-115"/>
       <use x="169.181641" xlink:href="#DejaVuSans-115"/>
      </g>
     </g>
    </g>
    <g id="xtick_5">
     <g id="line2d_5">
      <path clip-path="url(#p731fd9f2f2)" d="M 566.784 278.8812 
L 632.484845 481.087608 
" style="fill:none;stroke:#b0b0b0;stroke-linecap:square;stroke-width:0.8;"/>
     </g>
     <g id="text_5">
      <!-- Shooting -->
      <defs>
       <path d="M 54.890625 33.015625 
L 54.890625 0 
L 45.90625 0 
L 45.90625 32.71875 
Q 45.90625 40.484375 42.875 44.328125 
Q 39.84375 48.1875 33.796875 48.1875 
Q 26.515625 48.1875 22.3125 43.546875 
Q 18.109375 38.921875 18.109375 30.90625 
L 18.109375 0 
L 9.078125 0 
L 9.078125 75.984375 
L 18.109375 75.984375 
L 18.109375 46.1875 
Q 21.34375 51.125 25.703125 53.5625 
Q 30.078125 56 35.796875 56 
Q 45.21875 56 50.046875 50.171875 
Q 54.890625 44.34375 54.890625 33.015625 
z
" id="DejaVuSans-104"/>
       <path d="M 30.609375 48.390625 
Q 23.390625 48.390625 19.1875 42.75 
Q 14.984375 37.109375 14.984375 27.296875 
Q 14.984375 17.484375 19.15625 11.84375 
Q 23.34375 6.203125 30.609375 6.203125 
Q 37.796875 6.203125 41.984375 11.859375 
Q 46.1875 17.53125 46.1875 27.296875 
Q 46.1875 37.015625 41.984375 42.703125 
Q 37.796875 48.390625 30.609375 48.390625 
z
M 30.609375 56 
Q 42.328125 56 49.015625 48.375 
Q 55.71875 40.765625 55.71875 27.296875 
Q 55.71875 13.875 49.015625 6.21875 
Q 42.328125 -1.421875 30.609375 -1.421875 
Q 18.84375 -1.421875 12.171875 6.21875 
Q 5.515625 13.875 5.515625 27.296875 
Q 5.515625 40.765625 12.171875 48.375 
Q 18.84375 56 30.609375 56 
z
" id="DejaVuSans-111"/>
      </defs>
      <g style="fill:#808080;" transform="translate(619.087958 496.6099)scale(0.08 -0.08)">
       <use xlink:href="#DejaVuSans-83"/>
       <use x="63.476562" xlink:href="#DejaVuSans-104"/>
       <use x="126.855469" xlink:href="#DejaVuSans-111"/>
       <use x="188.037109" xlink:href="#DejaVuSans-111"/>
       <use x="249.21875" xlink:href="#DejaVuSans-116"/>
       <use x="288.427734" xlink:href="#DejaVuSans-105"/>
       <use x="316.210938" xlink:href="#DejaVuSans-110"/>
       <use x="379.589844" xlink:href="#DejaVuSans-103"/>
      </g>
     </g>
    </g>
   </g>
   <g id="matplotlib.axis_2">
    <g id="ytick_1">
     <g id="line2d_6">
      <path clip-path="url(#p731fd9f2f2)" d="M 619.9371 278.8812 
L 619.807622 275.173427 
L 619.419818 271.483718 
L 618.775577 267.830049 
L 617.878039 264.23022 
L 616.731576 260.701769 
L 615.341773 257.261887 
L 613.715402 253.927331 
L 611.860385 250.714348 
L 609.785761 247.638592 
L 607.501637 244.715046 
L 605.01914 241.957954 
L 602.350366 239.380749 
L 599.508316 236.995986 
L 596.506836 234.815283 
L 593.36055 232.849265 
L 590.084785 231.10751 
L 586.695502 229.598504 
L 583.209211 228.329598 
L 579.642899 227.306974 
L 576.013939 226.535615 
L 572.340012 226.019278 
L 568.639016 225.760479 
L 564.928984 225.760479 
L 561.227988 226.019278 
L 557.554061 226.535615 
L 553.925101 227.306974 
L 550.358789 228.329598 
L 546.872498 229.598504 
L 543.483215 231.10751 
L 540.20745 232.849265 
L 537.061164 234.815283 
L 534.059684 236.995986 
L 531.217634 239.380749 
L 528.54886 241.957954 
L 526.066363 244.715046 
L 523.782239 247.638592 
L 521.707615 250.714348 
L 519.852598 253.927331 
L 518.226227 257.261887 
L 516.836424 260.701769 
L 515.689961 264.23022 
L 514.792423 267.830049 
L 514.148182 271.483718 
L 513.760378 275.173427 
L 513.6309 278.8812 
L 513.760378 282.588973 
L 514.148182 286.278682 
L 514.792423 289.932351 
L 515.689961 293.53218 
L 516.836424 297.060631 
L 518.226227 300.500513 
L 519.852598 303.835069 
L 521.707615 307.048052 
L 523.782239 310.123808 
L 526.066363 313.047354 
L 528.54886 315.804446 
L 531.217634 318.381651 
L 534.059684 320.766414 
L 537.061164 322.947117 
L 540.20745 324.913135 
L 543.483215 326.65489 
L 546.872498 328.163896 
L 550.358789 329.432802 
L 553.925101 330.455426 
L 557.554061 331.226785 
L 561.227988 331.743122 
L 564.928984 332.001921 
L 568.639016 332.001921 
L 572.340012 331.743122 
L 576.013939 331.226785 
L 579.642899 330.455426 
L 583.209211 329.432802 
L 586.695502 328.163896 
L 590.084785 326.65489 
L 593.36055 324.913135 
L 596.506836 322.947117 
L 599.508316 320.766414 
L 602.350366 318.381651 
L 605.01914 315.804446 
L 607.501637 313.047354 
L 609.785761 310.123808 
L 611.860385 307.048052 
L 613.715402 303.835069 
L 615.341773 300.500513 
L 616.731576 297.060631 
L 617.878039 293.53218 
L 618.775577 289.932351 
L 619.419818 286.278682 
L 619.807622 282.588973 
L 619.9371 278.8812 
L 619.9371 278.8812 
" style="fill:none;stroke:#b0b0b0;stroke-linecap:square;stroke-width:0.8;"/>
     </g>
     <g id="text_6">
      <!-- 10 -->
      <defs>
       <path d="M 12.40625 8.296875 
L 28.515625 8.296875 
L 28.515625 63.921875 
L 10.984375 60.40625 
L 10.984375 69.390625 
L 28.421875 72.90625 
L 38.28125 72.90625 
L 38.28125 8.296875 
L 54.390625 8.296875 
L 54.390625 0 
L 12.40625 0 
z
" id="DejaVuSans-49"/>
       <path d="M 31.78125 66.40625 
Q 24.171875 66.40625 20.328125 58.90625 
Q 16.5 51.421875 16.5 36.375 
Q 16.5 21.390625 20.328125 13.890625 
Q 24.171875 6.390625 31.78125 6.390625 
Q 39.453125 6.390625 43.28125 13.890625 
Q 47.125 21.390625 47.125 36.375 
Q 47.125 51.421875 43.28125 58.90625 
Q 39.453125 66.40625 31.78125 66.40625 
z
M 31.78125 74.21875 
Q 44.046875 74.21875 50.515625 64.515625 
Q 56.984375 54.828125 56.984375 36.375 
Q 56.984375 17.96875 50.515625 8.265625 
Q 44.046875 -1.421875 31.78125 -1.421875 
Q 19.53125 -1.421875 13.0625 8.265625 
Q 6.59375 17.96875 6.59375 36.375 
Q 6.59375 54.828125 13.0625 64.515625 
Q 19.53125 74.21875 31.78125 74.21875 
z
" id="DejaVuSans-48"/>
      </defs>
      <g style="fill:#808080;" transform="translate(619.9371 277.425419)scale(0.07 -0.07)">
       <use xlink:href="#DejaVuSans-49"/>
       <use x="63.623047" xlink:href="#DejaVuSans-48"/>
      </g>
     </g>
    </g>
    <g id="ytick_2">
     <g id="line2d_7">
      <path clip-path="url(#p731fd9f2f2)" d="M 673.0902 278.8812 
L 673.025441 275.171167 
L 672.831243 271.465654 
L 672.507844 267.769176 
L 672.055635 264.086236 
L 671.47517 260.421322 
L 670.767154 256.778898 
L 669.932452 253.163403 
L 668.972078 249.57924 
L 667.887204 246.030778 
L 666.679152 242.522338 
L 665.349392 239.058197 
L 663.899546 235.642573 
L 662.33138 232.279629 
L 660.646803 228.973462 
L 658.84787 225.7281 
L 656.936771 222.547497 
L 654.915834 219.435527 
L 652.787522 216.395983 
L 650.554429 213.432568 
L 648.219274 210.548892 
L 645.784902 207.748468 
L 643.254281 205.034708 
L 640.630492 202.410919 
L 637.916732 199.880298 
L 635.116308 197.445926 
L 632.232632 195.110771 
L 629.269217 192.877678 
L 626.229673 190.749366 
L 623.117703 188.728429 
L 619.9371 186.81733 
L 616.691738 185.018397 
L 613.385571 183.33382 
L 610.022627 181.765654 
L 606.607003 180.315808 
L 603.142862 178.986048 
L 599.634422 177.777996 
L 596.08596 176.693122 
L 592.501797 175.732748 
L 588.886302 174.898046 
L 585.243878 174.19003 
L 581.578964 173.609565 
L 577.896024 173.157356 
L 574.199546 172.833957 
L 570.494033 172.639759 
L 566.784 172.575 
L 563.073967 172.639759 
L 559.368454 172.833957 
L 555.671976 173.157356 
L 551.989036 173.609565 
L 548.324122 174.19003 
L 544.681698 174.898046 
L 541.066203 175.732748 
L 537.48204 176.693122 
L 533.933578 177.777996 
L 530.425138 178.986048 
L 526.960997 180.315808 
L 523.545373 181.765654 
L 520.182429 183.33382 
L 516.876262 185.018397 
L 513.6309 186.81733 
L 510.450297 188.728429 
L 507.338327 190.749366 
L 504.298783 192.877678 
L 501.335368 195.110771 
L 498.451692 197.445926 
L 495.651268 199.880298 
L 492.937508 202.410919 
L 490.313719 205.034708 
L 487.783098 207.748468 
L 485.348726 210.548892 
L 483.013571 213.432568 
L 480.780478 216.395983 
L 478.652166 219.435527 
L 476.631229 222.547497 
L 474.72013 225.7281 
L 472.921197 228.973462 
L 471.23662 232.279629 
L 469.668454 235.642573 
L 468.218608 239.058197 
L 466.888848 242.522338 
L 465.680796 246.030778 
L 464.595922 249.57924 
L 463.635548 253.163403 
L 462.800846 256.778898 
L 462.09283 260.421322 
L 461.512365 264.086236 
L 461.060156 267.769176 
L 460.736757 271.465654 
L 460.542559 275.171167 
L 460.4778 278.8812 
L 460.542559 282.591233 
L 460.736757 286.296746 
L 461.060156 289.993224 
L 461.512365 293.676164 
L 462.09283 297.341078 
L 462.800846 300.983502 
L 463.635548 304.598997 
L 464.595922 308.18316 
L 465.680796 311.731622 
L 466.888848 315.240062 
L 468.218608 318.704203 
L 469.668454 322.119827 
L 471.23662 325.482771 
L 472.921197 328.788938 
L 474.72013 332.0343 
L 476.631229 335.214903 
L 478.652166 338.326873 
L 480.780478 341.366417 
L 483.013571 344.329832 
L 485.348726 347.213508 
L 487.783098 350.013932 
L 490.313719 352.727692 
L 492.937508 355.351481 
L 495.651268 357.882102 
L 498.451692 360.316474 
L 501.335368 362.651629 
L 504.298783 364.884722 
L 507.338327 367.013034 
L 510.450297 369.033971 
L 513.6309 370.94507 
L 516.876262 372.744003 
L 520.182429 374.42858 
L 523.545373 375.996746 
L 526.960997 377.446592 
L 530.425138 378.776352 
L 533.933578 379.984404 
L 537.48204 381.069278 
L 541.066203 382.029652 
L 544.681698 382.864354 
L 548.324122 383.57237 
L 551.989036 384.152835 
L 555.671976 384.605044 
L 559.368454 384.928443 
L 563.073967 385.122641 
L 566.784 385.1874 
L 570.494033 385.122641 
L 574.199546 384.928443 
L 577.896024 384.605044 
L 581.578964 384.152835 
L 585.243878 383.57237 
L 588.886302 382.864354 
L 592.501797 382.029652 
L 596.08596 381.069278 
L 599.634422 379.984404 
L 603.142862 378.776352 
L 606.607003 377.446592 
L 610.022627 375.996746 
L 613.385571 374.42858 
L 616.691738 372.744003 
L 619.9371 370.94507 
L 623.117703 369.033971 
L 626.229673 367.013034 
L 629.269217 364.884722 
L 632.232632 362.651629 
L 635.116308 360.316474 
L 637.916732 357.882102 
L 640.630492 355.351481 
L 643.254281 352.727692 
L 645.784902 350.013932 
L 648.219274 347.213508 
L 650.554429 344.329832 
L 652.787522 341.366417 
L 654.915834 338.326873 
L 656.936771 335.214903 
L 658.84787 332.0343 
L 660.646803 328.788938 
L 662.33138 325.482771 
L 663.899546 322.119827 
L 665.349392 318.704203 
L 666.679152 315.240062 
L 667.887204 311.731622 
L 668.972078 308.18316 
L 669.932452 304.598997 
L 670.767154 300.983502 
L 671.47517 297.341078 
L 672.055635 293.676164 
L 672.507844 289.993224 
L 672.831243 286.296746 
L 673.025441 282.591233 
L 673.0902 278.8812 
L 673.0902 278.8812 
" style="fill:none;stroke:#b0b0b0;stroke-linecap:square;stroke-width:0.8;"/>
     </g>
     <g id="text_7">
      <!-- 20 -->
      <defs>
       <path d="M 19.1875 8.296875 
L 53.609375 8.296875 
L 53.609375 0 
L 7.328125 0 
L 7.328125 8.296875 
Q 12.9375 14.109375 22.625 23.890625 
Q 32.328125 33.6875 34.8125 36.53125 
Q 39.546875 41.84375 41.421875 45.53125 
Q 43.3125 49.21875 43.3125 52.78125 
Q 43.3125 58.59375 39.234375 62.25 
Q 35.15625 65.921875 28.609375 65.921875 
Q 23.96875 65.921875 18.8125 64.3125 
Q 13.671875 62.703125 7.8125 59.421875 
L 7.8125 69.390625 
Q 13.765625 71.78125 18.9375 73 
Q 24.125 74.21875 28.421875 74.21875 
Q 39.75 74.21875 46.484375 68.546875 
Q 53.21875 62.890625 53.21875 53.421875 
Q 53.21875 48.921875 51.53125 44.890625 
Q 49.859375 40.875 45.40625 35.40625 
Q 44.1875 33.984375 37.640625 27.21875 
Q 31.109375 20.453125 19.1875 8.296875 
z
" id="DejaVuSans-50"/>
      </defs>
      <g style="fill:#808080;" transform="translate(673.0902 277.425419)scale(0.07 -0.07)">
       <use xlink:href="#DejaVuSans-50"/>
       <use x="63.623047" xlink:href="#DejaVuSans-48"/>
      </g>
     </g>
    </g>
    <g id="ytick_3">
     <g id="line2d_8">
      <path clip-path="url(#p731fd9f2f2)" d="M 726.2433 278.8812 
L 726.146162 273.316151 
L 725.854865 267.757882 
L 725.369765 262.213164 
L 724.691453 256.688755 
L 723.820755 251.191383 
L 722.758732 245.727747 
L 721.506677 240.304504 
L 720.066117 234.92826 
L 718.438806 229.605566 
L 716.626728 224.342907 
L 714.632088 219.146695 
L 712.457319 214.02326 
L 710.105069 208.978844 
L 707.578205 204.019593 
L 704.879805 199.15155 
L 702.013156 194.380645 
L 698.981751 189.712691 
L 695.789284 185.153375 
L 692.439643 180.708252 
L 688.936911 176.382738 
L 685.285354 172.182102 
L 681.489421 168.111463 
L 677.553737 164.175779 
L 673.483098 160.379846 
L 669.282462 156.728289 
L 664.956948 153.225557 
L 660.511825 149.875916 
L 655.952509 146.683449 
L 651.284555 143.652044 
L 646.51365 140.785395 
L 641.645607 138.086995 
L 636.686356 135.560131 
L 631.64194 133.207881 
L 626.518505 131.033112 
L 621.322293 129.038472 
L 616.059634 127.226394 
L 610.73694 125.599083 
L 605.360696 124.158523 
L 599.937453 122.906468 
L 594.473817 121.844445 
L 588.976445 120.973747 
L 583.452036 120.295435 
L 577.907318 119.810335 
L 572.349049 119.519038 
L 566.784 119.4219 
L 561.218951 119.519038 
L 555.660682 119.810335 
L 550.115964 120.295435 
L 544.591555 120.973747 
L 539.094183 121.844445 
L 533.630547 122.906468 
L 528.207304 124.158523 
L 522.83106 125.599083 
L 517.508366 127.226394 
L 512.245707 129.038472 
L 507.049495 131.033112 
L 501.92606 133.207881 
L 496.881644 135.560131 
L 491.922393 138.086995 
L 487.05435 140.785395 
L 482.283445 143.652044 
L 477.615491 146.683449 
L 473.056175 149.875916 
L 468.611052 153.225557 
L 464.285538 156.728289 
L 460.084902 160.379846 
L 456.014263 164.175779 
L 452.078579 168.111463 
L 448.282646 172.182102 
L 444.631089 176.382738 
L 441.128357 180.708252 
L 437.778716 185.153375 
L 434.586249 189.712691 
L 431.554844 194.380645 
L 428.688195 199.15155 
L 425.989795 204.019593 
L 423.462931 208.978844 
L 421.110681 214.02326 
L 418.935912 219.146695 
L 416.941272 224.342907 
L 415.129194 229.605566 
L 413.501883 234.92826 
L 412.061323 240.304504 
L 410.809268 245.727747 
L 409.747245 251.191383 
L 408.876547 256.688755 
L 408.198235 262.213164 
L 407.713135 267.757882 
L 407.421838 273.316151 
L 407.3247 278.8812 
L 407.421838 284.446249 
L 407.713135 290.004518 
L 408.198235 295.549236 
L 408.876547 301.073645 
L 409.747245 306.571017 
L 410.809268 312.034653 
L 412.061323 317.457896 
L 413.501883 322.83414 
L 415.129194 328.156834 
L 416.941272 333.419493 
L 418.935912 338.615705 
L 421.110681 343.73914 
L 423.462931 348.783556 
L 425.989795 353.742807 
L 428.688195 358.61085 
L 431.554844 363.381755 
L 434.586249 368.049709 
L 437.778716 372.609025 
L 441.128357 377.054148 
L 444.631089 381.379662 
L 448.282646 385.580298 
L 452.078579 389.650937 
L 456.014263 393.586621 
L 460.084902 397.382554 
L 464.285538 401.034111 
L 468.611052 404.536843 
L 473.056175 407.886484 
L 477.615491 411.078951 
L 482.283445 414.110356 
L 487.05435 416.977005 
L 491.922393 419.675405 
L 496.881644 422.202269 
L 501.92606 424.554519 
L 507.049495 426.729288 
L 512.245707 428.723928 
L 517.508366 430.536006 
L 522.83106 432.163317 
L 528.207304 433.603877 
L 533.630547 434.855932 
L 539.094183 435.917955 
L 544.591555 436.788653 
L 550.115964 437.466965 
L 555.660682 437.952065 
L 561.218951 438.243362 
L 566.784 438.3405 
L 572.349049 438.243362 
L 577.907318 437.952065 
L 583.452036 437.466965 
L 588.976445 436.788653 
L 594.473817 435.917955 
L 599.937453 434.855932 
L 605.360696 433.603877 
L 610.73694 432.163317 
L 616.059634 430.536006 
L 621.322293 428.723928 
L 626.518505 426.729288 
L 631.64194 424.554519 
L 636.686356 422.202269 
L 641.645607 419.675405 
L 646.51365 416.977005 
L 651.284555 414.110356 
L 655.952509 411.078951 
L 660.511825 407.886484 
L 664.956948 404.536843 
L 669.282462 401.034111 
L 673.483098 397.382554 
L 677.553737 393.586621 
L 681.489421 389.650937 
L 685.285354 385.580298 
L 688.936911 381.379662 
L 692.439643 377.054148 
L 695.789284 372.609025 
L 698.981751 368.049709 
L 702.013156 363.381755 
L 704.879805 358.61085 
L 707.578205 353.742807 
L 710.105069 348.783556 
L 712.457319 343.73914 
L 714.632088 338.615705 
L 716.626728 333.419493 
L 718.438806 328.156834 
L 720.066117 322.83414 
L 721.506677 317.457896 
L 722.758732 312.034653 
L 723.820755 306.571017 
L 724.691453 301.073645 
L 725.369765 295.549236 
L 725.854865 290.004518 
L 726.146162 284.446249 
L 726.2433 278.8812 
L 726.2433 278.8812 
" style="fill:none;stroke:#b0b0b0;stroke-linecap:square;stroke-width:0.8;"/>
     </g>
     <g id="text_8">
      <!-- 30 -->
      <defs>
       <path d="M 40.578125 39.3125 
Q 47.65625 37.796875 51.625 33 
Q 55.609375 28.21875 55.609375 21.1875 
Q 55.609375 10.40625 48.1875 4.484375 
Q 40.765625 -1.421875 27.09375 -1.421875 
Q 22.515625 -1.421875 17.65625 -0.515625 
Q 12.796875 0.390625 7.625 2.203125 
L 7.625 11.71875 
Q 11.71875 9.328125 16.59375 8.109375 
Q 21.484375 6.890625 26.8125 6.890625 
Q 36.078125 6.890625 40.9375 10.546875 
Q 45.796875 14.203125 45.796875 21.1875 
Q 45.796875 27.640625 41.28125 31.265625 
Q 36.765625 34.90625 28.71875 34.90625 
L 20.21875 34.90625 
L 20.21875 43.015625 
L 29.109375 43.015625 
Q 36.375 43.015625 40.234375 45.921875 
Q 44.09375 48.828125 44.09375 54.296875 
Q 44.09375 59.90625 40.109375 62.90625 
Q 36.140625 65.921875 28.71875 65.921875 
Q 24.65625 65.921875 20.015625 65.03125 
Q 15.375 64.15625 9.8125 62.3125 
L 9.8125 71.09375 
Q 15.4375 72.65625 20.34375 73.4375 
Q 25.25 74.21875 29.59375 74.21875 
Q 40.828125 74.21875 47.359375 69.109375 
Q 53.90625 64.015625 53.90625 55.328125 
Q 53.90625 49.265625 50.4375 45.09375 
Q 46.96875 40.921875 40.578125 39.3125 
z
" id="DejaVuSans-51"/>
      </defs>
      <g style="fill:#808080;" transform="translate(726.2433 277.425419)scale(0.07 -0.07)">
       <use xlink:href="#DejaVuSans-51"/>
       <use x="63.623047" xlink:href="#DejaVuSans-48"/>
      </g>
     </g>
    </g>
   </g>
   <g id="line2d_9">
    <path clip-path="url(#p731fd9f2f2)" d="M 689.03613 278.8812 
L 620.987197 112.060913 
L 429.178364 178.904853 
L 416.277836 388.230329 
L 607.847028 405.260205 
L 689.03613 278.8812 
" style="fill:none;stroke:#ff0000;stroke-linecap:square;"/>
   </g>
   <g id="patch_4">
    <path d="M 779.3964 278.8812 
C 779.3964 250.961195 773.896768 223.312678 763.212245 197.517957 
C 752.527722 171.723236 736.866094 148.283955 717.12367 128.54153 
C 697.381245 108.799106 673.941964 93.137478 648.147243 82.452955 
C 622.352522 71.768432 594.704005 66.2688 566.784 66.2688 
C 538.863995 66.2688 511.215478 71.768432 485.420757 82.452955 
C 459.626036 93.137478 436.186755 108.799106 416.44433 128.54153 
C 396.701906 148.283955 381.040278 171.723236 370.355755 197.517957 
C 359.671232 223.312678 354.1716 250.961195 354.1716 278.8812 
C 354.1716 306.801205 359.671232 334.449722 370.355755 360.244443 
C 381.040278 386.039164 396.701906 409.478445 416.44433 429.22087 
C 436.186755 448.963294 459.626036 464.624922 485.420757 475.309445 
C 511.215478 485.993968 538.863995 491.4936 566.784 491.4936 
C 594.704005 491.4936 622.352522 485.993968 648.147243 475.309445 
C 673.941964 464.624922 697.381245 448.963294 717.12367 429.22087 
C 736.866094 409.478445 752.527722 386.039164 763.212245 360.244443 
C 773.896768 334.449722 779.3964 306.801205 779.3964 278.8812 
" style="fill:none;stroke:#000000;stroke-linecap:square;stroke-linejoin:miter;stroke-width:0.8;"/>
   </g>
  </g>
 </g>
 <defs>
  <clipPath id="p731fd9f2f2">
   <path d="M 779.3964 278.8812 
C 779.3964 250.961195 773.896768 223.312678 763.212245 197.517957 
C 752.527722 171.723236 736.866094 148.283955 717.12367 128.54153 
C 697.381245 108.799106 673.941964 93.137478 648.147243 82.452955 
C 622.352522 71.768432 594.704005 66.2688 566.784 66.2688 
C 538.863995 66.2688 511.215478 71.768432 485.420757 82.452955 
C 459.626036 93.137478 436.186755 108.799106 416.44433 128.54153 
C 396.701906 148.283955 381.040278 171.723236 370.355755 197.517957 
C 359.671232 223.312678 354.1716 250.961195 354.1716 278.8812 
C 354.1716 306.801205 359.671232 334.449722 370.355755 360.244443 
C 381.040278 386.039164 396.701906 409.478445 416.44433 429.22087 
C 436.186755 448.963294 459.626036 464.624922 485.420757 475.309445 
C 511.215478 485.993968 538.863995 491.4936 566.784 491.4936 
C 594.704005 491.4936 622.352522 485.993968 648.147243 475.309445 
C 673.941964 464.624922 697.381245 448.963294 717.12367 429.22087 
C 736.866094 409.478445 752.527722 386.039164 763.212245 360.244443 
C 773.896768 334.449722 779.3964 306.801205 779.3964 278.8812 
M 566.784 278.8812 
C 566.784 278.8812 566.784 278.8812 566.784 278.8812 
C 566.784 278.8812 566.784 278.8812 566.784 278.8812 
C 566.784 278.8812 566.784 278.8812 566.784 278.8812 
C 566.784 278.8812 566.784 278.8812 566.784 278.8812 
C 566.784 278.8812 566.784 278.8812 566.784 278.8812 
C 566.784 278.8812 566.784 278.8812 566.784 278.8812 
C 566.784 278.8812 566.784 278.8812 566.784 278.8812 
C 566.784 278.8812 566.784 278.8812 566.784 278.8812 
C 566.784 278.8812 566.784 278.8812 566.784 278.8812 
C 566.784 278.8812 566.784 278.8812 566.784 278.8812 
C 566.784 278.8812 566.784 278.8812 566.784 278.8812 
C 566.784 278.8812 566.784 278.8812 566.784 278.8812 
C 566.784 278.8812 566.784 278.8812 566.784 278.8812 
C 566.784 278.8812 566.784 278.8812 566.784 278.8812 
C 566.784 278.8812 566.784 278.8812 566.784 278.8812 
C 566.784 278.8812 566.784 278.8812 566.784 278.8812 
M 779.3964 278.8812 
z
"/>
  </clipPath>
 </defs>
</svg>
